<svg width="15" xmlns="http://www.w3.org/2000/svg" height="16" fill="none"><g style="fill: rgb(0, 0, 0);"><path d="M4.248,6.610L8.562,6.610L8.562,8.896L4.248,8.896L4.248,13.714L6.969,13.714C8.046,13.714,8.927,13.569,9.613,13.277C10.299,12.986,10.837,12.583,11.228,12.067C11.628,11.530,11.900,10.910,12.024,10.252C12.168,9.510,12.239,8.756,12.234,8.000C12.239,7.244,12.168,6.490,12.024,5.748C11.900,5.090,11.628,4.470,11.228,3.933C10.837,3.417,10.298,3.014,9.613,2.723C8.927,2.431,8.046,2.286,6.969,2.286L4.248,2.286L4.248,6.610ZZM1.482,8.896L0.000,8.896L0.000,6.611L1.482,6.611L1.482,0.000L8.031,0.000C9.241,0.000,10.288,0.210,11.173,0.627C12.058,1.046,12.780,1.617,13.341,2.342C13.901,3.066,14.318,3.914,14.591,4.885C14.864,5.856,15.000,6.895,15.000,8.000C15.007,9.052,14.869,10.100,14.590,11.115C14.318,12.085,13.901,12.934,13.340,13.658C12.780,14.383,12.058,14.954,11.173,15.373C10.288,15.791,9.240,16.000,8.031,16.000L1.482,16.000L1.482,8.896ZZ" fill-rule="evenodd" style="fill: rgb(255, 255, 255);" class="fills"/></g></svg>