<?xml version="1.0" encoding="UTF-8" standalone="no"?><!DOCTYPE svg PUBLIC "-//W3C//DTD SVG 1.1//EN" "http://www.w3.org/Graphics/SVG/1.1/DTD/svg11.dtd"><svg width="100%" height="100%" viewBox="0 0 5 6" version="1.1" xmlns="http://www.w3.org/2000/svg" xmlns:xlink="http://www.w3.org/1999/xlink" xml:space="preserve" xmlns:serif="http://www.serif.com/" style="fill-rule:evenodd;clip-rule:evenodd;stroke-linejoin:round;stroke-miterlimit:2;"><path d="M3.161,1.574c-0.024,-0.233 -0.129,-0.414 -0.313,-0.543c-0.183,-0.13 -0.422,-0.195 -0.715,-0.195c-0.206,0 -0.382,0.031 -0.53,0.094c-0.147,0.062 -0.26,0.146 -0.338,0.253c-0.078,0.106 -0.118,0.228 -0.12,0.364c0,0.114 0.026,0.213 0.079,0.296c0.052,0.083 0.124,0.154 0.214,0.212c0.091,0.057 0.191,0.106 0.301,0.145c0.11,0.039 0.221,0.072 0.333,0.098l0.511,0.128c0.206,0.048 0.405,0.113 0.596,0.195c0.191,0.081 0.362,0.184 0.514,0.309c0.152,0.124 0.272,0.274 0.361,0.45c0.088,0.176 0.133,0.382 0.133,0.618c-0,0.319 -0.082,0.6 -0.245,0.843c-0.164,0.242 -0.399,0.431 -0.707,0.567c-0.308,0.136 -0.681,0.204 -1.118,0.204c-0.424,-0 -0.792,-0.066 -1.104,-0.197c-0.311,-0.132 -0.554,-0.324 -0.729,-0.576c-0.175,-0.252 -0.27,-0.559 -0.284,-0.921l0.972,-0c0.014,0.19 0.073,0.348 0.176,0.474c0.103,0.126 0.237,0.22 0.403,0.282c0.166,0.062 0.352,0.093 0.558,0.093c0.215,0 0.404,-0.032 0.566,-0.097c0.163,-0.065 0.29,-0.155 0.383,-0.271c0.092,-0.117 0.139,-0.253 0.141,-0.409c-0.002,-0.142 -0.044,-0.26 -0.125,-0.353c-0.082,-0.093 -0.196,-0.172 -0.343,-0.235c-0.146,-0.063 -0.317,-0.119 -0.512,-0.169l-0.621,-0.159c-0.449,-0.116 -0.804,-0.291 -1.064,-0.527c-0.26,-0.235 -0.39,-0.548 -0.39,-0.938c-0,-0.322 0.087,-0.603 0.262,-0.845c0.175,-0.241 0.413,-0.429 0.715,-0.563c0.302,-0.134 0.644,-0.201 1.026,-0.201c0.387,-0 0.726,0.067 1.018,0.201c0.292,0.134 0.522,0.32 0.689,0.557c0.167,0.237 0.253,0.509 0.258,0.816l-0.951,0Z" style="fill:#fff;fill-rule:nonzero;"/></svg>