<svg width="17.999" xmlns="http://www.w3.org/2000/svg" height="14" fill="none"><g style="fill: rgb(0, 0, 0);"><path d="M2.924,10.687C3.035,10.578,3.184,10.517,3.339,10.517L17.705,10.517C17.824,10.515,17.932,10.586,17.977,10.695C18.023,10.805,17.997,10.931,17.912,11.014L15.074,13.829C14.964,13.938,14.815,14.000,14.659,14.000L0.293,14.000C0.175,14.001,0.068,13.930,0.022,13.821C-0.023,13.711,0.002,13.585,0.086,13.502L2.924,10.687ZZM2.924,0.170C3.035,0.061,3.184,-0.000,3.339,0.000L17.705,0.000C17.966,0.000,18.097,0.314,17.912,0.498L15.074,3.313C14.964,3.422,14.815,3.483,14.659,3.483L0.293,3.483C0.175,3.484,0.069,3.413,0.023,3.304C-0.022,3.195,0.003,3.069,0.086,2.986L2.924,0.170ZZM15.074,5.395C14.964,5.286,14.815,5.225,14.659,5.225L0.293,5.225C0.175,5.224,0.068,5.295,0.022,5.404C-0.023,5.514,0.002,5.640,0.086,5.723L2.924,8.538C3.034,8.647,3.184,8.708,3.339,8.708L17.705,8.708C17.824,8.709,17.931,8.638,17.977,8.529C18.022,8.419,17.997,8.293,17.912,8.210L15.074,5.395ZZ" style="fill: rgb(255, 255, 255);" class="fills"/></g></svg>