<svg width="21.999" xmlns="http://www.w3.org/2000/svg" height="21" fill="none"><g style="fill: rgb(0, 0, 0);"><path d="M15.021,12.624C15.021,10.500,13.741,9.772,11.181,9.468C9.353,9.225,8.988,8.740,8.988,7.890C8.988,7.040,9.598,6.494,10.816,6.494C11.913,6.494,12.523,6.858,12.827,7.769C12.892,7.949,13.063,8.070,13.254,8.072L14.229,8.072C14.343,8.075,14.453,8.031,14.534,7.951C14.615,7.871,14.659,7.761,14.656,7.647L14.656,7.587C14.411,6.232,13.286,5.211,11.913,5.098L11.913,3.642C11.913,3.399,11.730,3.217,11.426,3.156L10.511,3.156C10.268,3.156,10.085,3.338,10.024,3.642L10.024,5.038C8.195,5.280,7.038,6.494,7.038,8.012C7.038,10.014,8.256,10.803,10.816,11.107C12.523,11.410,13.071,11.775,13.071,12.746C13.071,13.716,12.218,14.384,11.060,14.384C9.475,14.384,8.927,13.717,8.744,12.806C8.684,12.564,8.500,12.442,8.317,12.442L7.281,12.442C7.168,12.439,7.058,12.483,6.977,12.563C6.897,12.644,6.853,12.753,6.855,12.867L6.855,12.927C7.098,14.445,8.074,15.537,10.085,15.841L10.085,17.298C10.085,17.540,10.268,17.723,10.572,17.783L11.487,17.783C11.730,17.783,11.913,17.601,11.974,17.298L11.974,15.840C13.803,15.537,15.021,14.262,15.021,12.624ZZ" style="fill: rgb(255, 255, 255);" class="fills"/><path d="M7.891,18.997C3.137,17.297,0.699,12.017,2.467,7.344C3.381,4.794,5.392,2.853,7.891,1.942C8.135,1.821,8.256,1.639,8.256,1.335L8.256,0.485C8.256,0.243,8.135,0.061,7.891,0.000C7.830,0.000,7.708,0.000,7.647,0.060C4.877,0.925,2.566,2.860,1.228,5.435C-0.111,8.010,-0.366,11.013,0.517,13.777C1.613,17.177,4.234,19.787,7.647,20.879C7.891,21.000,8.135,20.879,8.195,20.636C8.256,20.576,8.256,20.514,8.256,20.393L8.256,19.543C8.256,19.361,8.074,19.119,7.891,18.997ZZM14.351,0.061C14.107,-0.061,13.863,0.061,13.803,0.303C13.742,0.364,13.742,0.425,13.742,0.546L13.742,1.396C13.742,1.639,13.924,1.881,14.107,2.003C18.861,3.703,21.299,8.983,19.531,13.656C18.617,16.206,16.606,18.147,14.107,19.058C13.863,19.179,13.742,19.361,13.742,19.665L13.742,20.515C13.742,20.757,13.863,20.939,14.107,21.000C14.168,21.000,14.290,21.000,14.351,20.940C17.122,20.075,19.432,18.140,20.771,15.565C22.109,12.990,22.365,9.987,21.481,7.223C20.385,3.763,17.703,1.153,14.351,0.061ZZ" style="fill: rgb(255, 255, 255);" class="fills"/></g></svg>