<?xml version="1.0" encoding="UTF-8" standalone="no"?><!DOCTYPE svg PUBLIC "-//W3C//DTD SVG 1.1//EN" "http://www.w3.org/Graphics/SVG/1.1/DTD/svg11.dtd"><svg width="100%" height="100%" viewBox="0 0 9 9" version="1.1" xmlns="http://www.w3.org/2000/svg" xmlns:xlink="http://www.w3.org/1999/xlink" xml:space="preserve" xmlns:serif="http://www.serif.com/" style="fill-rule:evenodd;clip-rule:evenodd;stroke-linejoin:round;stroke-miterlimit:2;"><rect id="Artboard1" x="0" y="0" width="9" height="9" style="fill:none;"/><path d="M2.424,7.211c-0.399,0.09 -0.772,0.136 -1.107,0.136c-1.673,0 -1.752,-1.195 -0.237,-2.709c-0.002,-0.047 -0.003,-0.092 -0.003,-0.138c0,-1.849 1.462,-3.351 3.263,-3.351c0.67,0 1.294,0.209 1.812,0.565c0.558,-0.156 1.08,-0.242 1.531,-0.242c1.756,0 1.756,1.317 -0,2.937c-0.027,0.025 -0.053,0.05 -0.08,0.073l-0,0.018c-0,1.849 -1.462,3.351 -3.263,3.351c-0.716,-0 -1.378,-0.238 -1.916,-0.64Zm-0.634,-0.621c-0.244,-0.315 -0.435,-0.674 -0.557,-1.065c-0.79,0.984 -0.63,1.408 0.557,1.065Zm0.185,-2.735c-0.054,0.206 -0.082,0.422 -0.082,0.645c0,0.041 0.001,0.08 0.003,0.12c0.035,0.78 0.418,1.468 0.992,1.904c1.165,-0.425 2.963,-1.34 3.957,-2.363c-0,-0.876 -0.495,-1.308 -1.158,-1.758c-0.195,-0.132 -0.409,-0.238 -0.638,-0.309c-0.224,-0.07 -0.462,-0.107 -0.709,-0.107c-1.133,-0 -2.088,0.793 -2.365,1.868Zm4.747,-1.643c0.38,0.416 0.658,0.934 0.792,1.509c0.839,-1.172 0.679,-1.879 -0.627,-1.514c-0.052,0.014 -0.109,0.001 -0.165,0.005Zm-0.036,3.004c-0.819,0.827 -1.941,1.411 -3.137,1.663c0.248,0.086 0.514,0.134 0.791,0.134c1.108,0 2.045,-0.757 2.346,-1.797Zm-2.346,-2.701l0,0.798c-0.638,0 -1.155,0.531 -1.155,1.188l-0.778,0c0,-1.097 0.866,-1.986 1.933,-1.986Z" style="fill:#a79ce2;"/></svg>