<?xml version="1.0" encoding="UTF-8" standalone="no"?><!DOCTYPE svg PUBLIC "-//W3C//DTD SVG 1.1//EN" "http://www.w3.org/Graphics/SVG/1.1/DTD/svg11.dtd"><svg width="100%" height="100%" viewBox="0 0 9 9" version="1.1" xmlns="http://www.w3.org/2000/svg" xmlns:xlink="http://www.w3.org/1999/xlink" xml:space="preserve" xmlns:serif="http://www.serif.com/" style="fill-rule:evenodd;clip-rule:evenodd;stroke-linejoin:round;stroke-miterlimit:2;"><rect id="Artboard1" x="0" y="0" width="9" height="9" style="fill:none;"/><clipPath id="_clip1"><rect x="0" y="0" width="9" height="9"/></clipPath><g clip-path="url(#_clip1)"><path d="M7.759,4.658l1.241,-0l0,4.034l-1.241,0l-0,-4.034Zm-1.862,0.621l1.241,-0l-0,3.413l-1.241,0l-0,-3.413Zm-1.863,0.62l1.242,0l-0,2.793l-1.242,0l0,-2.793Zm-1.862,0.621l1.242,-0l-0,2.172l-1.242,0l0,-2.172Zm-2.172,0.621l1.241,-0l0,1.551l-1.241,0l0,-1.551Zm0.621,-1.242l-0.621,0l0,-0.957l0.621,-0c2.436,-0.166 5.47,-2.23 6.517,-3.703l-1.241,-0l-0,-0.931l3.103,-0l0,3.103l-0.931,0l-0,-1.552c-1.168,1.787 -4.943,4.04 -7.448,4.04Z" style="fill:#a79ce2;"/></g></svg>