<?xml version="1.0" encoding="UTF-8" standalone="no"?><!DOCTYPE svg PUBLIC "-//W3C//DTD SVG 1.1//EN" "http://www.w3.org/Graphics/SVG/1.1/DTD/svg11.dtd"><svg width="100%" height="100%" viewBox="0 0 9 9" version="1.1" xmlns="http://www.w3.org/2000/svg" xmlns:xlink="http://www.w3.org/1999/xlink" xml:space="preserve" xmlns:serif="http://www.serif.com/" style="fill-rule:evenodd;clip-rule:evenodd;stroke-linejoin:round;stroke-miterlimit:2;"><rect id="Artboard1" x="0" y="0" width="9" height="9" style="fill:none;"/><clipPath id="_clip1"><rect x="0" y="0" width="9" height="9"/></clipPath><g clip-path="url(#_clip1)"><path d="M7.073,6.029c0.387,0 0.701,0.314 0.701,0.701c-0,0.387 -0.314,0.701 -0.701,0.701c-0.387,-0 -0.701,-0.314 -0.701,-0.701c0,-0.387 0.314,-0.701 0.701,-0.701Zm0.079,-1.147c1.02,-0 1.848,0.827 1.848,1.847c0,1.022 -0.828,1.85 -1.848,1.85l-7.152,-0l0,-3.697l7.152,-0Zm0.027,0.774l-6.473,-0l-0,2.139l6.473,0c0.59,0 1.069,-0.478 1.069,-1.07c0,-0.591 -0.479,-1.069 -1.069,-1.069Zm-3.412,-3.287c0.273,0.274 0.273,0.718 -0,0.991c-0.274,0.273 -0.718,0.273 -0.991,0c-0.273,-0.273 -0.273,-0.717 0,-0.991c0.273,-0.273 0.717,-0.273 0.991,0Zm-1.157,2.513l-1.846,-1.845l2.615,-2.616l4.721,4.723c-0.277,-0.166 -0.602,-0.262 -0.949,-0.262l-0.408,0l-3.413,-3.413l-1.512,1.512l1.9,1.901l-1.108,0Z" style="fill:#a79ce2;"/></g></svg>