<?xml version="1.0" encoding="UTF-8" standalone="no"?><!DOCTYPE svg PUBLIC "-//W3C//DTD SVG 1.1//EN" "http://www.w3.org/Graphics/SVG/1.1/DTD/svg11.dtd"><svg width="100%" height="100%" viewBox="0 0 9 9" version="1.1" xmlns="http://www.w3.org/2000/svg" xmlns:xlink="http://www.w3.org/1999/xlink" xml:space="preserve" xmlns:serif="http://www.serif.com/" style="fill-rule:evenodd;clip-rule:evenodd;stroke-linejoin:round;stroke-miterlimit:2;"><rect id="Artboard1" x="0" y="0" width="9" height="9" style="fill:none;"/><clipPath id="_clip1"><rect x="0" y="0" width="9" height="9"/></clipPath><g clip-path="url(#_clip1)"><path d="M1.072,8.582c-0.592,-0 -1.072,-0.486 -1.072,-1.085c-0,-1.562 -0,-4.432 -0,-5.994c0,-0.599 0.48,-1.085 1.072,-1.085l6.066,0c0.514,0 0.931,0.422 0.931,0.942c-0,0 -0,0 -0,0l-7.138,0l0,6.28l7.138,-0l-0,-4.71l-6.207,0l0,-0.942l7.138,0l0,5.509c-0,0.599 -0.48,1.085 -1.072,1.085c-1.731,-0 -5.125,-0 -6.856,-0Zm5.756,-4.082c0.342,-0 0.62,0.281 0.62,0.628c0,0.347 -0.278,0.628 -0.62,0.628c-0.343,-0 -0.621,-0.281 -0.621,-0.628c-0,-0.347 0.278,-0.628 0.621,-0.628Z" style="fill:#a79ce2;"/></g></svg>