<?xml version="1.0" encoding="UTF-8" standalone="no"?><!DOCTYPE svg PUBLIC "-//W3C//DTD SVG 1.1//EN" "http://www.w3.org/Graphics/SVG/1.1/DTD/svg11.dtd"><svg width="100%" height="100%" viewBox="0 0 9 9" version="1.1" xmlns="http://www.w3.org/2000/svg" xmlns:xlink="http://www.w3.org/1999/xlink" xml:space="preserve" xmlns:serif="http://www.serif.com/" style="fill-rule:evenodd;clip-rule:evenodd;stroke-linejoin:round;stroke-miterlimit:2;"><rect id="Artboard1" x="0" y="0" width="8.25" height="8.25" style="fill:none;"/><clipPath id="_clip1"><rect x="0" y="0" width="8.25" height="8.25"/></clipPath><g clip-path="url(#_clip1)"><path d="M7.905,0.816c0.191,0 0.345,0.155 0.345,0.346l-0,5.926c-0,0.191 -0.154,0.346 -0.345,0.346l-7.56,-0c-0.191,-0 -0.345,-0.155 -0.345,-0.346l-0,-5.926c-0,-0.191 0.154,-0.346 0.345,-0.346l7.56,0Zm-0.422,2.687l-6.659,0l-0,3.205l6.659,-0l0,-3.205Zm0,-1.962l-6.659,-0l-0,1.232l6.659,-0l0,-1.232Zm-0.778,3.356l-0,0.987l-1.775,0l0,-0.987l1.775,-0Z" style="fill:#fff;"/></g></svg>