<?xml version="1.0" encoding="UTF-8" standalone="no"?><!DOCTYPE svg PUBLIC "-//W3C//DTD SVG 1.1//EN" "http://www.w3.org/Graphics/SVG/1.1/DTD/svg11.dtd"><svg width="100%" height="100%" viewBox="0 0 9 9" version="1.1" xmlns="http://www.w3.org/2000/svg" xmlns:xlink="http://www.w3.org/1999/xlink" xml:space="preserve" xmlns:serif="http://www.serif.com/" style="fill-rule:evenodd;clip-rule:evenodd;stroke-linejoin:round;stroke-miterlimit:2;"><rect id="Artboard1" x="0" y="0" width="8.25" height="8.25" style="fill:none;"/><g><circle cx="6.082" cy="1.576" r="1.576" style="fill:#b3351f;"/><path d="M6.914,3.718l-0,2.142l1.031,-0l0,0.803l-1.031,0l-5.648,0l-0.961,0l-0,-0.803l0.961,-0l0,-2.462c0,-1.545 1.241,-2.8 2.781,-2.824c-0.167,0.24 -0.287,0.514 -0.347,0.811c-0.968,0.182 -1.703,1.033 -1.703,2.056l0,2.419l4.186,-0l-0,-1.886c0.262,-0.042 0.509,-0.13 0.731,-0.256Z" style="fill:#fff;"/><rect x="2.936" y="7.354" width="2.324" height="0.804" style="fill:#fff;"/></g></svg>