<?xml version="1.0" encoding="UTF-8" standalone="no"?><!DOCTYPE svg PUBLIC "-//W3C//DTD SVG 1.1//EN" "http://www.w3.org/Graphics/SVG/1.1/DTD/svg11.dtd"><svg width="100%" height="100%" viewBox="0 0 9 9" version="1.1" xmlns="http://www.w3.org/2000/svg" xmlns:xlink="http://www.w3.org/1999/xlink" xml:space="preserve" xmlns:serif="http://www.serif.com/" style="fill-rule:evenodd;clip-rule:evenodd;stroke-linejoin:round;stroke-miterlimit:2;"><rect id="Artboard1" x="0" y="0" width="8.25" height="8.25" style="fill:none;"/><path d="M5.28,7.265l-0,0.939l-2.307,-0l-0.018,-0.948l-0.971,-0.562l-0.814,0.47l-1.155,-1.999l0.842,-0.489l0,-1.106l-0.842,-0.485l1.155,-1.999l0.868,0.501l0.935,-0.539l-0,-1.002l2.307,0l-0,1.002l0.932,0.539l0.868,-0.501l1.155,1.999l-0.84,0.485l-0,1.106l0.84,0.489l-1.155,1.999l-0.829,-0.46l-0.971,0.561Zm0.605,-1.602l0.937,0.54l0.45,-0.783l-0.946,-0.546c0.074,-0.225 0.115,-0.465 0.115,-0.715l-0,-0.038c-0.005,-0.257 -0.052,-0.504 -0.134,-0.734l0.965,-0.557l-0.45,-0.783l-0.978,0.563c-0.327,-0.363 -0.769,-0.622 -1.267,-0.721l0,-1.137l-0.904,-0l-0,1.137c-0.498,0.099 -0.94,0.358 -1.267,0.721l-0.976,-0.563l-0.452,0.783l0.965,0.557c-0.082,0.23 -0.127,0.477 -0.131,0.734l-0,0.038c-0,0.25 0.038,0.49 0.112,0.715l-0.946,0.546l0.452,0.783l0.935,-0.54c0.164,0.189 0.353,0.354 0.571,0.481c0.213,0.126 0.487,0.236 0.737,0.286l-0,1.068l0.904,0l0,-1.068c0.252,-0.05 0.487,-0.14 0.703,-0.264c0.215,-0.129 0.443,-0.314 0.605,-0.503Zm-1.759,-2.992c0.804,-0 1.454,0.651 1.454,1.454c0,0.803 -0.65,1.455 -1.454,1.455c-0.803,-0 -1.453,-0.652 -1.453,-1.455c0,-0.803 0.65,-1.454 1.453,-1.454Zm-0,0.727c0.401,-0 0.728,0.326 0.728,0.727c0,0.401 -0.327,0.727 -0.728,0.727c-0.402,0 -0.727,-0.326 -0.727,-0.727c0,-0.401 0.325,-0.727 0.727,-0.727Z" style="fill:#fff;"/><path d="M17.655,1.191c0.191,0 0.345,0.155 0.345,0.346l-0,5.926c-0,0.191 -0.154,0.346 -0.345,0.346l-7.56,-0c-0.191,-0 -0.345,-0.155 -0.345,-0.346l0,-5.926c0,-0.191 0.154,-0.346 0.345,-0.346l7.56,0Zm-0.422,2.687l-6.659,0l-0,3.205l6.659,-0l0,-3.205Zm0,-1.962l-6.659,-0l-0,1.232l6.659,-0l0,-1.232Zm-0.778,3.356l-0,0.987l-1.775,0l0,-0.987l1.775,-0Z" style="fill:#fff;"/></svg>