<?xml version="1.0" encoding="UTF-8" standalone="no"?><!DOCTYPE svg PUBLIC "-//W3C//DTD SVG 1.1//EN" "http://www.w3.org/Graphics/SVG/1.1/DTD/svg11.dtd"><svg width="100%" height="100%" viewBox="0 0 9 9" version="1.1" xmlns="http://www.w3.org/2000/svg" xmlns:xlink="http://www.w3.org/1999/xlink" xml:space="preserve" xmlns:serif="http://www.serif.com/" style="fill-rule:evenodd;clip-rule:evenodd;stroke-linejoin:round;stroke-miterlimit:2;"><rect id="Artboard1" x="0" y="0" width="8.25" height="8.25" style="fill:none;"/><path d="M1.694,5.979l-1.673,-1.672l0.755,-0.755l1.673,1.672l1.672,-1.673l0.001,0.001l0,-0.001l1.676,1.676l1.676,-1.676l0.755,0.755l-1.676,1.676l0,0.001l-0.754,0.755l-0.001,-0.001l-0.001,0.001l-0.755,-0.755l0.001,-0.001l-0.921,-0.921l-0.918,0.918l0.004,0.004l-0.755,0.755l-0.004,-0.004l-0.004,0.004l-0.755,-0.755l0.004,-0.004Zm5.108,-3.141l-0.846,0.645c-0.435,-0.572 -1.113,-0.907 -1.831,-0.907c-0.719,0 -1.396,0.335 -1.832,0.907l-0.846,-0.645c0.637,-0.836 1.628,-1.326 2.678,-1.326c1.05,0 2.04,0.49 2.677,1.326Z" style="fill:#fff;"/><path d="M17.655,1.191c0.191,0 0.345,0.155 0.345,0.346l-0,5.926c-0,0.191 -0.154,0.346 -0.345,0.346l-7.56,-0c-0.191,-0 -0.345,-0.155 -0.345,-0.346l0,-5.926c0,-0.191 0.154,-0.346 0.345,-0.346l7.56,0Zm-0.422,2.687l-6.659,0l-0,3.205l6.659,-0l0,-3.205Zm0,-1.962l-6.659,-0l-0,1.232l6.659,-0l0,-1.232Zm-0.778,3.356l-0,0.987l-1.775,0l0,-0.987l1.775,-0Z" style="fill:#fff;"/></svg>