<?xml version="1.0" encoding="UTF-8" standalone="no"?><!DOCTYPE svg PUBLIC "-//W3C//DTD SVG 1.1//EN" "http://www.w3.org/Graphics/SVG/1.1/DTD/svg11.dtd"><svg width="100%" height="100%" viewBox="0 0 7 7" version="1.1" xmlns="http://www.w3.org/2000/svg" xmlns:xlink="http://www.w3.org/1999/xlink" xml:space="preserve" xmlns:serif="http://www.serif.com/" style="fill-rule:evenodd;clip-rule:evenodd;stroke-linejoin:round;stroke-miterlimit:2;"><rect id="Artboard1" x="0" y="0" width="6.75" height="6.375" style="fill:none;"/><path d="M1.506,1.707l0,-0.623c0,-0.6 1.166,-1.084 2.605,-1.084c1.438,0 2.605,0.484 2.605,1.084l-0,2.606c-0,0.429 -0.601,0.801 -1.472,0.976l-0,0.625c-0,0.598 -1.166,1.084 -2.605,1.084c-1.439,0 -2.605,-0.486 -2.605,-1.084l0,-2.606c0,-0.43 0.601,-0.801 1.472,-0.978Zm3.304,2.881c-0.103,0.064 -0.222,0.124 -0.355,0.177c-0.469,0.192 -1.109,0.308 -1.816,0.308c-0.906,0 -1.704,-0.193 -2.171,-0.485l0,0.703c0,0.166 0.747,0.65 2.171,0.65c1.425,-0 2.171,-0.484 2.171,-0.65l-0,-0.703Zm-1.975,0.047c0.68,-0.022 1.191,-0.155 1.522,-0.299c0.3,-0.132 0.453,-0.272 0.453,-0.349l-0,-0.703c-0.103,0.066 -0.222,0.124 -0.355,0.179c-0.469,0.19 -1.109,0.307 -1.816,0.307c-0.237,-0 -0.467,-0.013 -0.686,-0.037c-0.155,-0.018 -0.305,-0.042 -0.447,-0.071c-0.422,-0.084 -0.78,-0.215 -1.038,-0.378l0,0.703c0,0.168 0.747,0.652 2.171,0.652c0.067,-0 0.132,-0.002 0.196,-0.004Zm-1.329,-1.415c0.132,0.03 0.277,0.055 0.434,0.075c0.211,0.026 0.444,0.042 0.699,0.042c0.067,0 0.132,-0.002 0.196,-0.003c0.675,-0.022 1.185,-0.156 1.517,-0.3c0.302,-0.131 0.458,-0.272 0.458,-0.349c-0,-0.113 -0.335,-0.366 -0.985,-0.522c-0.267,-0.064 -0.586,-0.111 -0.958,-0.126c-0.074,-0.001 -0.15,-0.003 -0.228,-0.003c-0.255,-0 -0.488,0.016 -0.699,0.042c-0.157,0.02 -0.302,0.045 -0.434,0.075c-0.684,0.155 -1.038,0.419 -1.038,0.534c0,0.115 0.354,0.38 1.038,0.535Zm3.738,1.004c0.684,-0.155 1.038,-0.419 1.038,-0.534l-0,-0.703c-0.258,0.16 -0.616,0.292 -1.038,0.378l-0,0.859Zm-0,-1.303c0.684,-0.153 1.038,-0.418 1.038,-0.535l-0,-0.703c-0.332,0.208 -0.829,0.365 -1.414,0.44c0.238,0.164 0.376,0.356 0.376,0.562l-0,0.236Zm-1.361,-1.19c0.074,0.003 0.15,0.005 0.228,0.005c1.412,0 2.171,-0.484 2.171,-0.652c-0,-0.168 -0.747,-0.651 -2.171,-0.651c-1.425,-0 -2.171,0.485 -2.171,0.651c0,0.112 0.336,0.367 0.985,0.523c0.267,0.063 0.587,0.111 0.958,0.124Z" style="fill:#fff;"/><g id="recieve.svg"></g></svg>