<?xml version="1.0" encoding="UTF-8" standalone="no"?><!DOCTYPE svg PUBLIC "-//W3C//DTD SVG 1.1//EN" "http://www.w3.org/Graphics/SVG/1.1/DTD/svg11.dtd"><svg width="100%" height="100%" viewBox="0 0 6 6" version="1.1" xmlns="http://www.w3.org/2000/svg" xmlns:xlink="http://www.w3.org/1999/xlink" xml:space="preserve" xmlns:serif="http://www.serif.com/" style="fill-rule:evenodd;clip-rule:evenodd;stroke-linejoin:round;stroke-miterlimit:2;"><rect id="Artboard1" x="0" y="0" width="5.25" height="6" style="fill:none;"/><path d="M2.216,1.375l-1.388,1.387c-0.133,0.133 -0.348,0.133 -0.481,0l-0.001,-0.001c-0.133,-0.133 -0.133,-0.348 0,-0.481l1.797,-1.797l-0.001,-0.001l0.482,-0.482l0.001,0.001l0.001,-0.001l0.482,0.482l-0.001,0.001l1.797,1.797c0.133,0.133 0.133,0.348 -0,0.481l-0.001,0.001c-0.133,0.133 -0.348,0.133 -0.481,0l-1.388,-1.387l0,4.625l-0.818,0l-0,-4.625Z" style="fill:#fff;"/></svg>