<?xml version="1.0" encoding="UTF-8" standalone="no"?><!DOCTYPE svg PUBLIC "-//W3C//DTD SVG 1.1//EN" "http://www.w3.org/Graphics/SVG/1.1/DTD/svg11.dtd"><svg width="100%" height="100%" viewBox="0 0 8 8" version="1.1" xmlns="http://www.w3.org/2000/svg" xmlns:xlink="http://www.w3.org/1999/xlink" xml:space="preserve" xmlns:serif="http://www.serif.com/" style="fill-rule:evenodd;clip-rule:evenodd;stroke-linejoin:round;stroke-miterlimit:2;"><rect id="Artboard1" x="0" y="0" width="7.125" height="7.125" style="fill:none;"/><path d="M0.284,3.631l0,-2.56l5.561,0l-0.459,-0.459c-0.057,-0.056 -0.089,-0.133 -0.089,-0.213c0,-0.08 0.032,-0.157 0.089,-0.213c0.056,-0.057 0.133,-0.089 0.213,-0.089c0.08,0 0.157,0.032 0.213,0.088l1.313,1.313l-0.427,0.427l-0.005,-0.006l-0.891,0.892c-0.057,0.056 -0.134,0.088 -0.213,0.088c-0.08,-0 -0.157,-0.032 -0.214,-0.089c-0.056,-0.056 -0.088,-0.133 -0.088,-0.213c-0,-0.08 0.031,-0.157 0.088,-0.213l0.615,-0.615l-5.137,-0l0,1.862l-0.569,0Zm6.557,-0.137l-0,2.56l-5.561,-0l0.459,0.459c0.057,0.056 0.089,0.133 0.089,0.213c-0,0.08 -0.032,0.157 -0.089,0.213c-0.056,0.057 -0.133,0.089 -0.213,0.089c-0.08,-0 -0.157,-0.032 -0.213,-0.088l-1.313,-1.313l0.427,-0.427l0.005,0.006l0.891,-0.892c0.057,-0.056 0.134,-0.088 0.213,-0.088c0.08,0 0.157,0.032 0.214,0.089c0.056,0.056 0.088,0.133 0.088,0.213c0,0.08 -0.031,0.157 -0.088,0.213l-0.615,0.615l5.137,0l-0,-1.862l0.569,-0Z" style="fill:#fff;"/><path d="M10.653,12.17l-2.454,0l-0,-1.09l2.454,-0l0,-2.455l1.091,-0l0,2.455l2.455,-0l-0,1.09l-2.455,0l0,2.455l-1.091,-0l0,-2.455Z" style="fill:#fff;"/></svg>